<?xml version="1.0" encoding="UTF-8"?>
<!DOCTYPE svg PUBLIC "-//W3C//DTD SVG 1.1//EN" "http://www.w3.org/Graphics/SVG/1.1/DTD/svg11.dtd">
<svg xmlns="http://www.w3.org/2000/svg" version="1.1" width="512px" height="512px" style="shape-rendering:geometricPrecision; text-rendering:geometricPrecision; image-rendering:optimizeQuality; fill-rule:evenodd; clip-rule:evenodd" xmlns:xlink="http://www.w3.org/1999/xlink">
<g><path style="opacity:0.994" fill="#990c34" d="M 96.5,63.5 C 202.501,63.3333 308.501,63.5 414.5,64C 431.333,68.8333 442.167,79.6667 447,96.5C 447.667,202.5 447.667,308.5 447,414.5C 442.167,431.333 431.333,442.167 414.5,447C 308.5,447.667 202.5,447.667 96.5,447C 79.6667,442.167 68.8333,431.333 64,414.5C 63.3333,308.5 63.3333,202.5 64,96.5C 69.0164,79.651 79.8497,68.651 96.5,63.5 Z M 161.5,109.5 C 193.502,109.333 225.502,109.5 257.5,110C 271.879,114.589 276.046,123.756 270,137.5C 266.835,141.666 262.668,144.166 257.5,145C 224.5,145.333 191.5,145.667 158.5,146C 152.333,148.167 148.167,152.333 146,158.5C 145.333,223.167 145.333,287.833 146,352.5C 148.167,358.667 152.333,362.833 158.5,365C 223.167,365.667 287.833,365.667 352.5,365C 358.667,362.833 362.833,358.667 365,352.5C 365.333,319.5 365.667,286.5 366,253.5C 370.589,239.121 379.756,234.954 393.5,241C 397.666,244.165 400.166,248.332 401,253.5C 401.667,285.5 401.667,317.5 401,349.5C 397.167,380 380,397.167 349.5,401C 286.833,401.667 224.167,401.667 161.5,401C 131,397.167 113.833,380 110,349.5C 109.029,284.143 109.362,218.809 111,153.5C 115.35,134.951 126.183,121.784 143.5,114C 149.479,111.839 155.479,110.339 161.5,109.5 Z M 381.5,109.5 C 398.656,112.16 404.156,121.493 398,137.5C 348.5,187 299,236.5 249.5,286C 240.174,291.13 232.008,289.63 225,281.5C 214.333,265.5 203.667,249.5 193,233.5C 186.922,218.659 191.755,209.326 207.5,205.5C 213.428,206.213 218.261,208.88 222,213.5C 228.333,223.167 234.667,232.833 241,242.5C 241.718,243.451 242.551,243.617 243.5,243C 286.833,199.667 330.167,156.333 373.5,113C 376.158,111.522 378.825,110.355 381.5,109.5 Z"/></g>
</svg>
